<svg xmlns="http://www.w3.org/2000/svg" width="56" height="56" viewBox="0 0 24 24" role="img" aria-label="Call us">
  <title>Call button</title>
  <desc>Blue circular call button with white phone icon</desc>
  <circle cx="12" cy="12" r="12" fill="#007bff"/>
  <path fill="#ffffff" d="M6.62 10.79a15.05 15.05 0 006.59 6.59l2.2-2.2a1 1 0 01.93-.27 11.36 11.36 0 003.55.57 1 1 0 011 1v3.5a1 1 0 01-1 1A19 19 0 013 5a1 1 0 011-1h3.5a1 1 0 011 1 11.36 11.36 0 00.57 3.55 1 1 0 01-.27.93l-2.18 2.31z"/>
</svg>
