<?xml version="1.0" encoding="UTF-8"?>
<svg version="1.1" xmlns="http://www.w3.org/2000/svg" width="1325" height="1325">
<path d="M0 0 C2.24956263 -0.00435165 4.49712374 -0.04068719 6.74633789 -0.07861328 C28.19190174 -0.24622943 45.82848443 9.0085082 61.27172852 23.62060547 C76.171278 39.14209622 84.25387786 58.42770109 84.07197571 79.91639328 C84.0744458 81.34532019 84.07867272 82.77424493 84.08447689 84.20316219 C84.09530183 88.1102871 84.08135235 92.01698035 84.06315953 95.92406317 C84.04778363 100.18213723 84.0557789 104.44017997 84.0607338 108.69827008 C84.06619655 116.1548429 84.05677617 123.61128089 84.03750801 131.06782913 C84.00889662 142.15625878 84.0032746 153.24461785 84.00213747 164.33308008 C83.99933164 184.13931078 83.97356764 203.94546172 83.93803715 223.75165781 C83.90699048 241.08692992 83.88342755 258.42219195 83.86730957 275.75748444 C83.86568836 277.48260411 83.86568836 277.48260411 83.8640344 279.24257469 C83.85965231 283.91121665 83.85529894 288.57985863 83.85099261 293.24850066 C83.81044877 337.04475815 83.7465139 380.84095437 83.672093 424.63716591 C83.60613924 463.53593658 83.56082621 502.43467987 83.53295898 541.33349609 C83.50157225 585.0438231 83.45731517 628.75410578 83.39229679 672.46439672 C83.38539747 677.12575225 83.3785291 681.78710784 83.37167358 686.44846344 C83.36997412 687.59619394 83.36827466 688.74392445 83.36652371 689.92643466 C83.34110128 707.24679955 83.32547333 724.56715551 83.31460571 741.8875351 C83.30218678 761.58773788 83.27551236 781.28786434 83.23011702 800.98801991 C83.20511844 812.00903752 83.19100142 823.02994035 83.19270959 834.0509869 C83.19274139 841.41856176 83.17822814 848.78601672 83.15203289 856.15354474 C83.13752088 860.34743878 83.12912963 864.54108657 83.13843119 868.73500118 C83.21466465 907.47104617 83.21466465 907.47104617 74.77172852 922.87060547 C74.42770996 923.52730225 74.08369141 924.18399902 73.72924805 924.8605957 C70.87893946 930.15598987 67.53333532 934.8343413 63.58422852 939.37060547 C63.13950195 939.95712891 62.69477539 940.54365234 62.23657227 941.14794922 C51.80232616 954.56340849 34.0931706 963.32455078 17.58422852 966.37060547 C11.15114036 967.06681076 4.66289968 966.90924344 -1.79825974 966.87397003 C-3.7430892 966.87814881 -5.68791555 966.88407842 -7.63273501 966.8915875 C-12.96756669 966.90712598 -18.30210777 966.89786393 -23.63693457 966.88447569 C-29.44449633 966.87431396 -35.2520141 966.88737448 -41.0595696 966.89744902 C-51.90293871 966.91283807 -62.74621487 966.91018469 -73.58958683 966.89923777 C-83.8361501 966.88909423 -94.08266976 966.88845059 -104.32923508 966.89620972 C-105.36463401 966.89698475 -105.36463401 966.89698475 -106.42095009 966.89777545 C-109.23246619 966.89990862 -112.04398222 966.90210346 -114.8554982 966.90437655 C-141.02300633 966.92551779 -167.19048112 966.92697571 -193.35799408 966.91578674 C-194.52035278 966.91528997 -194.52035278 966.91528997 -195.70619347 966.91478316 C-196.8704209 966.91428558 -196.8704209 966.91428558 -198.05816808 966.91377795 C-221.71130116 966.90368224 -245.36442046 966.90108103 -269.01755524 966.90586853 C-270.60194175 966.90617845 -272.18632826 966.90648707 -273.77071478 966.90679441 C-280.13787231 966.9080363 -286.50502983 966.90931097 -292.87218734 966.91063347 C-310.67103355 966.91430142 -328.4698798 966.91658388 -346.26872635 966.91777802 C-347.48448845 966.91785989 -347.48448845 966.91785989 -348.7248114 966.91794342 C-374.54944683 966.91958042 -400.37407747 966.91507361 -426.1987114 966.9063797 C-427.03624581 966.9060987 -427.87378023 966.90581771 -428.73669448 966.9055282 C-442.33736295 966.90094851 -455.93803132 966.8960706 -469.53869968 966.8911675 C-523.46909108 966.87174608 -577.39944276 966.87264068 -631.32983398 966.89208984 C-644.9189084 966.89697473 -658.50798282 966.90181898 -672.09705734 966.9063797 C-672.93382014 966.90666149 -673.77058294 966.90694328 -674.63270219 966.90723362 C-700.42701679 966.91586069 -726.22132808 966.919515 -752.01564407 966.91777802 C-752.82560953 966.91772368 -753.63557499 966.91766934 -754.47008486 966.91761336 C-772.251675 966.91636334 -790.03326479 966.91382858 -807.81485458 966.910136 C-814.1775535 966.90881947 -820.54025244 966.90756714 -826.90295137 966.90633316 C-828.48578881 966.9060236 -830.06862625 966.90570868 -831.65146369 966.90538837 C-855.29470555 966.90061701 -878.93793188 966.90467399 -902.58117181 966.91478316 C-903.35574642 966.91511434 -904.13032104 966.91544553 -904.92836761 966.91578674 C-906.08808102 966.91628284 -906.08808102 966.91628284 -907.27122298 966.91678895 C-933.36832211 966.92783048 -959.46538127 966.92374601 -985.5624747 966.90266377 C-988.36721764 966.90045443 -991.17196062 966.8983076 -993.97670364 966.89620972 C-995.0091782 966.89542848 -995.0091782 966.89542848 -996.06251082 966.89463145 C-1006.27994731 966.88723485 -1016.49733839 966.89093495 -1026.71477127 966.90126038 C-1038.08878783 966.91267372 -1049.46270014 966.91092605 -1060.83670734 966.89122939 C-1066.56140481 966.8817192 -1072.28591414 966.87845053 -1078.01060566 966.89285332 C-1083.22604731 966.90584088 -1088.44113515 966.90019029 -1093.65655136 966.88013068 C-1095.52425947 966.87612622 -1097.39199735 966.87870221 -1099.25968161 966.88895443 C-1114.00577513 966.96410853 -1129.67962512 965.96084784 -1142.85327148 958.62060547 C-1143.50102539 958.27771484 -1144.1487793 957.93482422 -1144.81616211 957.58154297 C-1161.07059071 948.75356787 -1172.23079219 936.82187294 -1180.66577148 920.49560547 C-1180.99512695 919.87234375 -1181.32448242 919.24908203 -1181.66381836 918.60693359 C-1186.89416147 908.11415939 -1187.85575075 897.49144871 -1187.79329491 885.91828156 C-1187.79643058 884.4873022 -1187.80087896 883.05632524 -1187.806508 881.62535352 C-1187.81813906 877.70798264 -1187.81122747 873.79083499 -1187.80117415 869.87346794 C-1187.79354172 865.60600267 -1187.80335261 861.33857076 -1187.81090415 857.07111025 C-1187.82172692 849.59669302 -1187.82141807 842.12234082 -1187.81376266 834.64792061 C-1187.80240973 823.53315411 -1187.8082193 812.41844242 -1187.81738759 801.30367629 C-1187.83318317 781.45210404 -1187.83181628 761.60056076 -1187.82315085 741.74898575 C-1187.8156048 724.37656377 -1187.81363379 707.00415241 -1187.81721878 689.63172913 C-1187.81744794 688.47946863 -1187.81767709 687.32720814 -1187.81791319 686.14003066 C-1187.8188472 681.46265421 -1187.8198024 676.78527776 -1187.82079248 672.10790132 C-1187.82996991 628.22866443 -1187.8216484 584.34944598 -1187.80550179 540.47021193 C-1187.79126493 501.48436317 -1187.79253881 462.49854381 -1187.80688477 423.51269531 C-1187.82294793 379.7138173 -1187.82931906 335.91495559 -1187.82004797 292.11607504 C-1187.81908582 287.44721063 -1187.8181473 282.77834622 -1187.81721878 278.10948181 C-1187.81698155 276.95988454 -1187.81674432 275.81028727 -1187.8164999 274.62585372 C-1187.81308718 257.26416026 -1187.81707887 239.90247858 -1187.82465744 222.54078674 C-1187.83323146 202.80018778 -1187.83109873 183.05962233 -1187.81481521 163.31902754 C-1187.80600209 152.27030609 -1187.80543748 141.22165719 -1187.81675373 130.17293761 C-1187.82347867 122.79327339 -1187.81929818 115.41366734 -1187.80623942 108.03401174 C-1187.79910158 103.82910075 -1187.79666613 99.62433392 -1187.80745737 95.41942745 C-1187.81718469 91.59002436 -1187.81297911 87.76089263 -1187.79791539 83.93150911 C-1187.79349454 81.91403487 -1187.80369085 79.89654449 -1187.81457824 77.87909478 C-1187.74694314 66.91122874 -1185.82259367 57.00162976 -1180.72827148 47.24560547 C-1180.38159424 46.56892822 -1180.03491699 45.89225098 -1179.67773438 45.19506836 C-1176.58104135 39.33768713 -1172.88401587 34.26919307 -1168.41577148 29.37060547 C-1167.91045898 28.77376953 -1167.40514648 28.17693359 -1166.88452148 27.56201172 C-1154.18765435 13.53715593 -1134.83604477 5.6428376 -1116.41577148 3.37060547 C-1113.78128799 3.28176249 -1111.17433184 3.23447916 -1108.54082733 3.24229628 C-1107.77317109 3.24057223 -1107.00551484 3.23884817 -1106.21459628 3.23707188 C-1103.64017263 3.23250534 -1101.06580553 3.23503738 -1098.49137974 3.23752689 C-1096.61990357 3.23568591 -1094.74842778 3.2334071 -1092.87695262 3.23072985 C-1087.71330625 3.22461392 -1082.5496756 3.22472342 -1077.38602642 3.22580279 C-1071.77626084 3.22587532 -1066.16650077 3.22016122 -1060.55673784 3.21515793 C-1050.71792447 3.20717499 -1040.8791148 3.20286899 -1031.04029846 3.20094109 C-1020.48259214 3.19885089 -1009.92488985 3.19462812 -999.36718559 3.18768311 C-998.70051331 3.18724543 -998.03384103 3.18680776 -997.34696656 3.18635683 C-993.9476164 3.18411295 -990.54826626 3.18182919 -987.14891614 3.17952797 C-980.17941066 3.17482489 -973.20990499 3.17042855 -966.24039924 3.16614234 C-965.53846872 3.16571062 -964.8365382 3.1652789 -964.11333706 3.16483409 C-947.93670639 3.15496691 -931.76007458 3.14830827 -915.5834423 3.14173316 C-890.44763354 3.13150028 -865.31182859 3.11845691 -840.17602348 3.10142326 C-839.41891558 3.10091036 -838.66180767 3.10039745 -837.8817571 3.099869 C-828.6487979 3.09360193 -819.4158388 3.08720212 -810.18287972 3.0807634 C-796.09966191 3.07095113 -782.0164439 3.06142307 -767.93322588 3.05191539 C-766.35220322 3.05084801 -764.77118055 3.04977996 -763.19015788 3.04871123 C-725.9241833 3.02352618 -688.65820733 3.00086988 -651.39223053 2.9792199 C-648.91930782 2.97778285 -646.4463851 2.97634316 -643.97346239 2.97490309 C-605.8802786 2.952735 -567.78709436 2.93186654 -529.69390869 2.91320801 C-528.03856377 2.9123962 -526.38321884 2.91158433 -524.72787392 2.9107724 C-517.28951942 2.90712533 -509.85116493 2.90348702 -502.41281043 2.89984982 C-499.11341869 2.89823636 -495.81402695 2.89662208 -492.5146352 2.8950079 C-490.04263099 2.89379914 -487.57062677 2.89259227 -485.09862256 2.89138549 C-447.86767157 2.87319317 -410.6367226 2.85350461 -373.40577602 2.82768917 C-372.62344273 2.82714743 -371.84110943 2.82660568 -371.03506906 2.82604752 C-354.63343021 2.81467643 -338.23179169 2.80290869 -321.83015351 2.79060734 C-314.14988083 2.78484988 -306.46960806 2.77919505 -298.78933525 2.77360344 C-297.65507582 2.77277541 -297.65507582 2.77277541 -296.49790207 2.77193066 C-272.12681775 2.75419385 -247.75573607 2.74325319 -223.38464654 2.73602365 C-198.84432201 2.72873012 -174.30400907 2.71547732 -149.76369284 2.69373636 C-146.37438143 2.6907365 -142.98506995 2.68781013 -139.59575844 2.68492889 C-138.9313484 2.68436171 -138.26693836 2.68379453 -137.58239468 2.68321017 C-126.41191689 2.67387337 -115.24144921 2.67247426 -104.07096819 2.67317543 C-94.36315788 2.67324476 -84.65537023 2.66614374 -74.94756868 2.65312538 C-69.40958587 2.6459098 -63.87165053 2.64190999 -58.33366395 2.64664788 C-53.29930784 2.65089599 -48.26504741 2.64603029 -43.23070515 2.63378349 C-41.41728632 2.63099039 -39.6038585 2.63156717 -37.7904426 2.63586222 C-35.33220104 2.64120106 -32.87428502 2.63425695 -30.4160648 2.62426382 C-29.71573967 2.62874046 -29.01541455 2.6332171 -28.29386745 2.63782939 C-18.76283771 2.56312519 -9.68007188 -0.00209005 0 0 Z " fill="#D54A3C" transform="translate(1214.415771484375,186.62939453125)"/>
<path d="M0 0 C0 240.24 0 480.48 0 728 C-313.83 728 -627.66 728 -951 728 C-951 488.09 -951 248.18 -951 1 C-944.56746978 5.09342832 -938.42782062 9.00909931 -932.4375 13.625 C-926.71856532 17.97037035 -920.95449051 22.24150634 -915.125 26.4375 C-913.99940674 27.24803833 -913.99940674 27.24803833 -912.85107422 28.07495117 C-910.56805151 29.71756625 -908.28404981 31.35881352 -906 33 C-895.99303418 40.19856631 -886.02308463 47.44253046 -876.10791016 54.76708984 C-867.78497251 60.90919634 -859.39567785 66.95790683 -851 73 C-840.9936743 80.20122344 -831.02060494 87.44255899 -821.10571289 94.76928711 C-815.76164384 98.71407041 -810.39098455 102.61962408 -805 106.5 C-798.80345586 110.96020953 -792.64023977 115.46259635 -786.5 120 C-777.38251634 126.73553059 -768.20059231 133.37863637 -759 140 C-748.99449602 147.20063208 -739.02311522 154.44250786 -729.10791016 161.76708984 C-720.78497251 167.90919634 -712.39567785 173.95790683 -704 180 C-693.9936743 187.20122344 -684.02060494 194.44255899 -674.10571289 201.76928711 C-668.76164384 205.71407041 -663.39098455 209.61962408 -658 213.5 C-651.80345586 217.96020953 -645.64023977 222.46259635 -639.5 227 C-630.38251634 233.73553059 -621.20059231 240.37863637 -612 247 C-601.99449602 254.20063208 -592.02311522 261.44250786 -582.10791016 268.76708984 C-573.78497251 274.90919634 -565.39567785 280.95790683 -557 287 C-546.9936743 294.20122344 -537.02060494 301.44255899 -527.10571289 308.76928711 C-521.03339496 313.25163533 -514.92254684 317.67800823 -508.79589844 322.08569336 C-502.27972361 326.78058154 -495.8149935 331.54374254 -489.3671875 336.33203125 C-485.3111685 339.33545016 -481.22938003 342.24551523 -477 345 C-474.22924752 343.6865119 -471.78020408 342.22447036 -469.3046875 340.41796875 C-468.59836182 339.90500244 -467.89203613 339.39203613 -467.16430664 338.86352539 C-466.40883545 338.31043701 -465.65336426 337.75734863 -464.875 337.1875 C-463.24617393 336.00249395 -461.61726542 334.8176012 -459.98828125 333.6328125 C-458.74232178 332.72450684 -458.74232178 332.72450684 -457.47119141 331.79785156 C-454.41163712 329.57195176 -451.34114349 327.36150448 -448.27001953 325.15161133 C-440.508785 319.56458683 -432.79664988 313.91402281 -425.10571289 308.23071289 C-419.02455095 303.74183637 -412.90404491 299.31009187 -406.76953125 294.89453125 C-401.31916162 290.96607984 -395.90325984 286.99294732 -390.5 283 C-383.6229644 277.91794922 -376.70966917 272.88997203 -369.76953125 267.89453125 C-364.31916162 263.96607984 -358.90325984 259.99294732 -353.5 256 C-346.6229644 250.91794922 -339.70966917 245.88997203 -332.76953125 240.89453125 C-327.31916162 236.96607984 -321.90325984 232.99294732 -316.5 229 C-309.6229644 223.91794922 -302.70966917 218.88997203 -295.76953125 213.89453125 C-290.31916162 209.96607984 -284.90325984 205.99294732 -279.5 202 C-272.6229644 196.91794922 -265.70966917 191.88997203 -258.76953125 186.89453125 C-253.31916162 182.96607984 -247.90325984 178.99294732 -242.5 175 C-235.6229644 169.91794922 -228.70966917 164.88997203 -221.76953125 159.89453125 C-216.31916038 155.96607895 -210.90332922 151.99285479 -205.5 148 C-195.6460488 140.72040486 -185.71425404 133.55169487 -175.77050781 126.39550781 C-166.50847805 119.72765706 -157.28415107 113.01322961 -148.10571289 106.23071289 C-142.02455095 101.74183637 -135.90404491 97.31009187 -129.76953125 92.89453125 C-124.31916038 88.96607895 -118.90332922 84.99285479 -113.5 81 C-103.6460488 73.72040486 -93.71425404 66.55169487 -83.77050781 59.39550781 C-75.31406964 53.3076125 -66.88111091 47.19131259 -58.5 41 C-50.13065531 34.81737938 -41.70942292 28.70991229 -33.26464844 22.63085938 C-30.13884744 20.37985133 -27.01555917 18.12537345 -23.89282227 15.87011719 C-22.35995566 14.7633056 -20.82660311 13.65716665 -19.29272461 12.55175781 C-16.01400831 10.18726037 -12.74140044 7.81645747 -9.49609375 5.40625 C-8.50738281 4.6740625 -7.51867188 3.941875 -6.5 3.1875 C-5.6646875 2.56230469 -4.829375 1.93710937 -3.96875 1.29296875 C-2 0 -2 0 0 0 Z " fill="#BCBCBC" transform="translate(1137,425)"/>
<path d="M0 0 C7.87560928 6.75052224 7.87560928 6.75052224 10.99278259 9.85906982 C11.70078003 10.56280228 12.40877747 11.26653473 13.13822937 11.99159241 C13.88917374 12.74298996 14.6401181 13.49438751 15.41381836 14.26855469 C16.2243869 15.07576462 17.03495544 15.88297455 17.87008667 16.71464539 C20.52931092 19.36442464 23.18479889 22.01790849 25.83984375 24.671875 C27.69064588 26.51946269 29.54152283 28.36697543 31.39247131 30.2144165 C35.26012707 34.07570062 39.12534915 37.93940987 42.98950195 41.80419922 C47.45949748 46.27479815 51.93507092 50.73975934 56.41322798 55.20218158 C60.72701063 59.50134585 65.03528319 63.80599128 69.34146309 68.11277008 C71.1735782 69.94370145 73.00732346 71.77300307 74.84269524 73.60066986 C77.39718703 76.14543046 79.94534394 78.69636826 82.49194336 81.24902344 C83.25705734 82.00851791 84.02217133 82.76801239 84.81047058 83.55052185 C85.49872925 84.24297501 86.18698792 84.93542816 86.89610291 85.64886475 C87.49908172 86.25129879 88.10206053 86.85373283 88.72331142 87.47442245 C90 89 90 89 90 91 C90.66 91 91.32 91 92 91 C93.34685612 92.36741829 93.34685612 92.36741829 94.94996643 94.31985474 C99.61245452 99.79661515 104.7004511 104.81719522 109.80053711 109.88232422 C110.87568009 110.95390395 111.95058387 112.02572371 113.02526855 113.09776306 C115.32427798 115.39026387 117.6247883 117.6812437 119.92646599 119.97106552 C123.56376802 123.58997639 127.19663457 127.21331808 130.82875061 130.83743286 C141.15201366 141.13661233 151.48127907 151.4297599 161.81469727 161.71875 C167.5334914 167.41303429 173.24871585 173.1108771 178.96010023 178.81259358 C182.57296484 182.41890558 186.19029475 186.02065973 189.8109616 189.61913753 C192.05390273 191.85038987 194.29269109 194.08577215 196.53029633 196.32237434 C197.57186958 197.36179183 198.61517465 198.39947709 199.66028786 199.43533516 C201.08110755 200.84405171 202.49527805 202.25946536 203.90904236 203.67526245 C204.70375411 204.4668318 205.49846586 205.25840115 206.31725979 206.07395744 C208 208 208 208 208 210 C208.66 210 209.32 210 210 210 C211.34753418 211.36753845 211.34753418 211.36753845 212.95117188 213.32006836 C217.60979506 218.79230286 222.68930006 223.81388851 227.78125 228.87890625 C228.85487881 229.95061197 229.92827727 231.02254848 231.00146484 232.09469604 C233.29877598 234.38886491 235.59762661 236.68147551 237.89770508 238.97286987 C241.54070539 242.60225782 245.17980801 246.23553741 248.81835938 249.86938477 C256.54260438 257.58256663 264.27107683 265.29150628 272 273 C280.34627595 281.32421468 288.69180515 289.64916998 297.03244781 297.97902966 C300.6435296 301.58515384 304.25702938 305.18883151 307.87245178 308.79060364 C310.12727122 311.03792116 312.37997865 313.28734689 314.63214111 315.53732681 C315.67002735 316.57335398 316.70877107 317.60852301 317.74847412 318.6427269 C326.5687372 327.41783482 326.5687372 327.41783482 330.36683655 331.86782837 C335.54010394 337.89482194 341.2833575 343.39685805 346.91186523 348.99365234 C348.21360544 350.29183118 349.51510758 351.59024877 350.81639099 352.8888855 C353.60486623 355.67084116 356.39484251 358.45127935 359.18597221 361.23057175 C363.59617245 365.62241244 368.00196522 370.01865675 372.40699768 374.41567993 C384.92863449 386.91321038 397.45624392 399.40474399 409.98803711 411.89208984 C416.91979796 418.79934287 423.84799202 425.71015347 430.77234226 432.62483561 C435.1545905 437.00052829 439.54131411 441.37166938 443.93136108 445.739537 C446.65175661 448.44824597 449.36800355 451.16108472 452.08306313 453.87514114 C453.34716903 455.13709063 454.61300755 456.39730715 455.88065338 457.65570068 C457.60367053 459.36662098 459.32050854 461.08350634 461.03587341 462.80209351 C461.54470375 463.30441604 462.05353409 463.80673857 462.57778352 464.324283 C466 467.77178453 466 467.77178453 466 470 C466.66 470 467.32 470 468 470 C469.35653782 471.37709999 469.35653782 471.37709999 470.96717834 473.33706665 C475.54062118 478.70940406 480.52184069 483.63891795 485.52514648 488.60693359 C486.57073333 489.64895689 487.6160808 490.69122042 488.66120911 491.73370361 C490.89637503 493.9623627 493.1330418 496.18950022 495.37087822 498.41547775 C498.90736794 501.93357116 502.43941762 505.45609982 505.97071838 508.97940063 C516.00723672 518.9918391 526.04976226 528.99823996 536.09643555 539.00048828 C541.65701666 544.53655921 547.2140276 550.07618882 552.7671991 555.61969244 C556.27970939 559.12565061 559.79668334 562.62704991 563.31699646 566.12517238 C565.49766096 568.29414774 567.67417203 570.46725307 569.84950066 572.64157867 C570.86204792 573.65197028 571.87632687 574.66062977 572.89241409 575.6674614 C574.27382242 577.03676552 575.64858114 578.41276855 577.02293396 579.78915405 C577.79552268 580.55860037 578.5681114 581.32804668 579.3641119 582.12080956 C581 584 581 584 581 586 C581.99 586.33 582.98 586.66 584 587 C585.47678471 588.49734688 585.47678471 588.49734688 587.06983948 590.43972778 C591.41255457 595.55251945 596.1236308 600.24102113 600.88256836 604.96435547 C601.85919093 605.9374137 602.83557365 606.91071271 603.81173706 607.88423157 C605.89793462 609.96392686 607.98563293 612.04209914 610.07450676 614.11910629 C613.37576837 617.40195831 616.67257817 620.68925702 619.96864319 623.97732544 C629.33609018 633.32070208 638.70955679 642.65802643 648.0871582 651.99121094 C653.27857561 657.15811732 658.46642163 662.32858277 663.65042979 667.50292313 C666.9287801 670.77472255 670.21158984 674.04196047 673.49774444 677.30592036 C675.53309689 679.32958274 677.56429416 681.35737516 679.59431076 683.38638878 C680.99120337 684.7800947 682.39309126 686.16878821 683.79508972 687.55735779 C684.61797485 688.38154709 685.44085999 689.20573639 686.28868103 690.05490112 C687.00964934 690.77272703 687.73061766 691.49055294 688.47343349 692.23013115 C690 694 690 694 690 696 C462.3 696 234.6 696 0 696 C0 466.32 0 236.64 0 0 Z " fill="#CFCFCF" transform="translate(187,457)"/>
<path d="M0 0 C354.42 0 708.84 0 1074 0 C1074 0.66 1074 1.32 1074 2 C1073.14341797 2.27650391 1073.14341797 2.27650391 1072.26953125 2.55859375 C1065.00824102 5.15603461 1059.06770508 9.11537424 1052.88378906 13.62695312 C1050.87569257 15.09060459 1048.85679176 16.53839499 1046.8359375 17.984375 C1035.81515273 25.88657719 1024.90545316 33.93983425 1014 42 C1003.9598876 49.42059673 993.90202492 56.81196039 983.76928711 64.10571289 C978.31893063 68.0339888 972.90316826 72.00712036 967.5 76 C961.35983731 80.53751011 955.19645339 85.03966576 949 89.5 C939.61219227 96.25983749 930.30303505 103.12417344 921 110 C910.95905114 117.42121495 900.89933596 124.81171806 890.76708984 132.10791016 C882.12750396 138.33662403 873.5651506 144.66954014 865 151 C854.9598876 158.42059673 844.90202492 165.81196039 834.76928711 173.10571289 C829.31893063 177.0339888 823.90316826 181.00712036 818.5 185 C812.35983731 189.53751011 806.19645339 194.03966576 800 198.5 C790.61219227 205.25983749 781.30303505 212.12417344 772 219 C761.9598876 226.42059673 751.90202492 233.81196039 741.76928711 241.10571289 C736.31893063 245.0339888 730.90316826 249.00712036 725.5 253 C718.6229644 258.08205078 711.70966917 263.11002797 704.76953125 268.10546875 C699.31916162 272.03392016 693.90325984 276.00705268 688.5 280 C682.35983731 284.53751011 676.19645339 289.03966576 670 293.5 C660.61219227 300.25983749 651.30303505 307.12417344 642 314 C631.95905114 321.42121495 621.89933596 328.81171806 611.76708984 336.10791016 C603.12750396 342.33662403 594.5651506 348.66954014 586 355 C576.37593093 362.11310119 566.74396193 369.21511284 557.0625 376.25 C556.310896 376.79922119 555.55929199 377.34844238 554.78491211 377.91430664 C554.08374268 378.4221167 553.38257324 378.92992676 552.66015625 379.453125 C552.04793213 379.89817383 551.43570801 380.34322266 550.80493164 380.80175781 C548.93387147 382.04390083 547.02717686 383.03768476 545 384 C535.79643084 377.38301136 526.6162573 370.73691036 517.5 364 C508.38253249 357.26444757 499.20059208 350.62136346 490 344 C479.99449602 336.79936792 470.02311522 329.55749214 460.10791016 322.23291016 C451.78497251 316.09080366 443.39567785 310.04209317 435 304 C424.99449602 296.79936792 415.02311522 289.55749214 405.10791016 282.23291016 C396.78497251 276.09080366 388.39567785 270.04209317 380 264 C369.99449602 256.79936792 360.02311522 249.55749214 350.10791016 242.23291016 C341.78497251 236.09080366 333.39567785 230.04209317 325 224 C314.99449602 216.79936792 305.02311522 209.55749214 295.10791016 202.23291016 C286.78497251 196.09080366 278.39567785 190.04209317 270 184 C259.99449602 176.79936792 250.02311522 169.55749214 240.10791016 162.23291016 C231.78497251 156.09080366 223.39567785 150.04209317 215 144 C204.99449602 136.79936792 195.02311522 129.55749214 185.10791016 122.23291016 C176.78497251 116.09080366 168.39567785 110.04209317 160 104 C149.99449602 96.79936792 140.02311522 89.55749214 130.10791016 82.23291016 C121.78497251 76.09080366 113.39567785 70.04209317 105 64 C95.79940295 57.37863296 86.61771857 50.73521785 77.5 44 C69.1140187 37.80710401 60.69030151 31.66997596 52.21728516 25.59667969 C49.96357408 23.97376949 47.72168792 22.33541799 45.48046875 20.6953125 C33.03880034 11.65253004 19.91862348 4.0007248 4.25 2.375 C3.1775 2.25125 2.105 2.1275 1 2 C0.67 1.34 0.34 0.68 0 0 Z " fill="#E2E2E2" transform="translate(115,190)"/>
<path d="M0 0 C0.33 0 0.66 0 1 0 C1.16396661 75.74355188 1.32293853 151.48711382 1.4553833 227.23072815 C1.45734527 228.351942 1.45930723 229.47315585 1.46132865 230.62834588 C1.50393857 254.99594867 1.5456525 279.36355292 1.58644359 303.73115882 C1.60645328 315.68120577 1.62666094 327.63125239 1.64697266 339.58129883 C1.64899054 340.77046555 1.65100841 341.95963227 1.65308744 343.18483435 C1.71857331 381.72197668 1.79712911 420.25907888 1.88247023 458.79618193 C1.97010779 498.40147412 2.04454458 538.00676975 2.10239606 577.61211718 C2.11057526 583.20742079 2.11890521 588.80272417 2.12732697 594.39802742 C2.12897981 595.49925216 2.13063265 596.6004769 2.13233558 597.73507209 C2.15931823 615.45436704 2.20019666 633.17360393 2.24628548 650.89285835 C2.29233488 668.71116213 2.32371166 686.52944409 2.3401753 704.34780019 C2.35039813 714.93110507 2.37180684 725.51424856 2.40935209 736.09749253 C2.43334553 743.17368788 2.44263121 750.24980555 2.4401468 757.32604085 C2.43914815 761.35380618 2.44436429 765.38128567 2.4675779 769.40899044 C2.67451433 807.02004393 2.67451433 807.02004393 -5.8125 822.5 C-6.15651855 823.15669678 -6.50053711 823.81339355 -6.85498047 824.48999023 C-9.70528906 829.7853844 -13.0508932 834.46373583 -17 839 C-17.66708984 839.87978516 -17.66708984 839.87978516 -18.34765625 840.77734375 C-28.69314302 854.07868389 -46.53889996 863.1687255 -63 866 C-70.35689252 866.68454496 -77.76915686 866.46813597 -85.1484375 866.390625 C-87.25834614 866.38314881 -89.36826181 866.37746241 -91.47817993 866.37347412 C-96.98555247 866.35832621 -102.49249154 866.31913981 -107.99969482 866.2746582 C-113.63775777 866.23346948 -119.27589192 866.21541307 -124.9140625 866.1953125 C-135.94289699 866.15263348 -146.97141221 866.08451613 -158 866 C-158.24956891 796.58416179 -158.48802237 727.16828785 -158.667099 657.75222778 C-158.66975125 656.72535746 -158.6724035 655.69848713 -158.67513612 654.64049952 C-158.73270539 632.32551022 -158.78827052 610.01051635 -158.84177024 587.69551694 C-158.86801751 576.75273954 -158.89470778 565.80996325 -158.92163086 554.8671875 C-158.92430253 553.77823173 -158.92697421 552.68927596 -158.92972684 551.56732153 C-159.0165798 516.25133808 -159.13270339 480.93552434 -159.26395634 445.61968034 C-159.39864662 409.33746372 -159.50390651 373.05527847 -159.57197101 336.77287276 C-159.58159155 331.65189673 -159.59154963 326.53092142 -159.60171318 321.40994644 C-159.60370314 320.40203428 -159.6056931 319.39412212 -159.60774335 318.35566716 C-159.64068541 302.11066994 -159.70478421 285.86593687 -159.78044565 269.62108865 C-159.8557921 253.30180203 -159.89852606 236.98269086 -159.90768219 220.66323046 C-159.91412559 210.95937966 -159.94586087 201.25636747 -160.01333981 191.5527451 C-160.05591306 185.07688737 -160.0659972 178.60151364 -160.04930587 172.12553863 C-160.04072487 168.43122163 -160.0466073 164.73844825 -160.09199382 161.04436646 C-160.14049496 157.07006849 -160.11973758 153.0978868 -160.09181309 149.12335014 C-160.11706056 147.9695444 -160.14230802 146.81573865 -160.16832057 145.6269691 C-160.0337691 138.04855109 -160.0337691 138.04855109 -157.03972279 135.01169254 C-154.75376362 133.47803585 -152.45613596 132.23583586 -150 131 C-148.87525388 130.18429817 -147.76678713 129.34460466 -146.69140625 128.46484375 C-146.1819043 128.05508301 -145.67240234 127.64532227 -145.14746094 127.22314453 C-144.62442383 126.79888184 -144.10138672 126.37461914 -143.5625 125.9375 C-136.00242106 119.90738734 -128.17488019 114.27622074 -120.31005859 108.65283203 C-116.55408777 105.96545912 -112.80754625 103.26506842 -109.0625 100.5625 C-108.32290039 100.02898926 -107.58330078 99.49547852 -106.82128906 98.94580078 C-100.55199239 94.41556193 -94.32630438 89.82749341 -88.10571289 85.23071289 C-82.76164154 81.28592789 -77.39086269 77.38054764 -72 73.5 C-57.77986191 63.25831905 -43.65593243 52.87541098 -29.69824219 42.27832031 C-28.17876204 41.13455981 -26.6412654 40.01482586 -25.1015625 38.8984375 C-13.16013956 29.96992743 -7.33505228 18.49280534 -2 5 C-1.41025391 3.52853516 -1.41025391 3.52853516 -0.80859375 2.02734375 C-0.54175781 1.35832031 -0.27492188 0.68929688 0 0 Z " fill="#AB3C31" transform="translate(1295,287)"/>
<path d="M0 0 C3.05141393 1.36445801 5.15797902 2.90704737 7.51812744 5.26416016 C8.19675842 5.93715149 8.8753894 6.61014282 9.57458496 7.30352783 C10.30826294 8.04125427 11.04194092 8.77898071 11.79785156 9.5390625 C12.57872131 10.31642761 13.35959106 11.09379272 14.16412354 11.89471436 C16.74468005 14.46646546 19.31784922 17.04546675 21.890625 19.625 C23.67823493 21.41126322 25.46614171 23.19722942 27.2543335 24.98291016 C30.99996874 28.72559598 34.74205426 32.47178222 38.48144531 36.22070312 C42.80847416 40.5586317 47.14268249 44.88928679 51.48065972 49.21626472 C55.65204637 53.37749645 59.81781312 57.54431875 63.98119354 61.71356201 C65.75482922 63.48853589 67.52996285 65.26201419 69.30658722 67.03399658 C71.78249268 69.50485026 74.25194188 71.98197678 76.71972656 74.4609375 C77.46150146 75.19866394 78.20327637 75.93639038 78.9675293 76.69647217 C79.63488098 77.3694635 80.30223267 78.04245483 80.98980713 78.73583984 C81.57455936 79.32134613 82.1593116 79.90685242 82.7617836 80.51010132 C84 82 84 82 84 84 C84.66 84 85.32 84 86 84 C87.35653782 85.37709999 87.35653782 85.37709999 88.96717834 87.33706665 C93.54062118 92.70940406 98.52184069 97.63891795 103.52514648 102.60693359 C104.57073333 103.64895689 105.6160808 104.69122042 106.66120911 105.73370361 C108.89637503 107.9623627 111.1330418 110.18950022 113.37087822 112.41547775 C116.90736794 115.93357116 120.43941762 119.45609982 123.97071838 122.97940063 C134.00723672 132.9918391 144.04976226 142.99823996 154.09643555 153.00048828 C159.65701666 158.53655921 165.2140276 164.07618882 170.7671991 169.61969244 C174.27970939 173.12565061 177.79668334 176.62704991 181.31699646 180.12517238 C183.49766096 182.29414774 185.67417203 184.46725307 187.84950066 186.64157867 C188.86204792 187.65197028 189.87632687 188.66062977 190.89241409 189.6674614 C192.27382242 191.03676552 193.64858114 192.41276855 195.02293396 193.78915405 C195.79552268 194.55860037 196.5681114 195.32804668 197.3641119 196.12080956 C199 198 199 198 199 200 C199.99 200.33 200.98 200.66 202 201 C203.47678471 202.49734688 203.47678471 202.49734688 205.06983948 204.43972778 C209.41255457 209.55251945 214.1236308 214.24102113 218.88256836 218.96435547 C219.85919093 219.9374137 220.83557365 220.91071271 221.81173706 221.88423157 C223.89793462 223.96392686 225.98563293 226.04209914 228.07450676 228.11910629 C231.37576837 231.40195831 234.67257817 234.68925702 237.96864319 237.97732544 C247.33609018 247.32070208 256.70955679 256.65802643 266.0871582 265.99121094 C271.27857561 271.15811732 276.46642163 276.32858277 281.65042979 281.50292313 C284.9287801 284.77472255 288.21158984 288.04196047 291.49774444 291.30592036 C293.53309689 293.32958274 295.56429416 295.35737516 297.59431076 297.38638878 C298.99120337 298.7800947 300.39309126 300.16878821 301.79508972 301.55735779 C302.61797485 302.38154709 303.44085999 303.20573639 304.28868103 304.05490112 C305.00964934 304.77272703 305.73061766 305.49055294 306.47343349 306.23013115 C308 308 308 308 308 310 C80.3 310 -147.4 310 -382 310 C-382 309.01 -382 308.02 -382 307 C-379.75390625 305.01171875 -379.75390625 305.01171875 -376.5625 302.6875 C-375.36244937 301.79713986 -374.16464577 300.90374553 -372.96875 300.0078125 C-372.32550781 299.52602539 -371.68226563 299.04423828 -371.01953125 298.54785156 C-367.45491377 295.81578256 -364.01450081 292.93460224 -360.5625 290.0625 C-354.8518489 285.326341 -349.09036338 280.6737377 -343.23852539 276.11352539 C-338.7793303 272.63154869 -334.38269875 269.07764909 -330 265.5 C-325.06057874 261.46789171 -320.09180764 257.48189147 -315.0625 253.5625 C-309.06155866 248.88286684 -303.19036363 244.05641321 -297.32983398 239.20263672 C-292.24112617 234.99738913 -287.08650766 230.88862044 -281.88232422 226.82763672 C-277.52559655 223.42484539 -273.23482388 219.94879057 -268.96484375 216.4375 C-259.81885322 208.91826668 -250.62998922 201.4592526 -241.29858398 194.17114258 C-235.35949657 189.5215122 -229.51798119 184.75388143 -223.671875 179.98828125 C-220.02458406 177.01583171 -216.35135699 174.07700432 -212.671875 171.14453125 C-209.87710764 168.90136271 -207.09824944 166.6394877 -204.32055664 164.37524414 C-198.60750517 159.71844367 -192.87576732 155.09372526 -187.0625 150.5625 C-181.80248554 146.46056388 -176.63749844 142.25422134 -171.5 138 C-165.81131908 133.28935958 -160.07222146 128.66036131 -154.24707031 124.11987305 C-148.32120385 119.49209395 -142.49951957 114.738701 -136.671875 109.98828125 C-133.02458406 107.01583171 -129.35135699 104.07700432 -125.671875 101.14453125 C-122.87710764 98.90136271 -120.09824944 96.6394877 -117.32055664 94.37524414 C-111.60750517 89.71844367 -105.87576732 85.09372526 -100.0625 80.5625 C-94.80248554 76.46056388 -89.63749844 72.25422134 -84.5 68 C-78.8085006 63.28702568 -73.06675554 58.65547156 -67.23828125 54.11328125 C-62.77910835 50.63146131 -58.38260975 47.07757644 -54 43.5 C-49.06057733 39.46789056 -44.09176728 35.48194478 -39.0625 31.5625 C-32.97456387 26.81408526 -27.01110058 21.92318154 -21.06176758 17.00268555 C-15.75155161 12.61158063 -10.39850225 8.28227058 -5 4 C-3.33287398 2.66724106 -1.66609817 1.33404364 0 0 Z " fill="#E2E2E2" transform="translate(569,843)"/>
<path d="M0 0 C2.22311279 0.00850743 4.44364325 -0.02034496 6.66650391 -0.05200195 C28.02937476 -0.157229 45.67098946 9.14906701 61.04541016 23.69604492 C75.91476104 39.18607651 84.03624824 58.46216495 83.8344841 79.91438007 C83.83573767 81.33480673 83.83875437 82.75523271 83.84335381 84.17565247 C83.85087754 88.05908056 83.83357713 91.94205137 83.81203572 95.82541211 C83.79303654 100.05751629 83.7975069 104.28960824 83.79894662 108.52174586 C83.79826125 115.93224672 83.78272064 123.34259978 83.75735664 130.75305557 C83.71970942 141.77203761 83.70517208 152.79096618 83.69532083 163.81000381 C83.67809592 182.3473721 83.64220218 200.88466017 83.59563446 219.42197609 C83.54959389 237.77378331 83.51187188 256.12557666 83.48523712 274.47742271 C83.48274516 276.18960691 83.48274516 276.18960691 83.48020286 277.93638069 C83.471809 283.73336107 83.46356355 289.53034165 83.45537522 295.32732233 C83.39712443 336.37743038 83.32025647 377.42748454 83.23242188 418.47753906 C83.14713934 458.35480456 83.07030091 498.23207175 83.00488281 538.109375 C83.00286265 539.33876723 83.00084249 540.56815946 82.99876111 541.834806 C82.97848298 554.18097223 82.95837639 566.52713873 82.93839548 578.87330544 C82.89768888 604.02342335 82.85583737 629.17353931 82.81329346 654.32365417 C82.81133881 655.47999228 82.80938416 656.63633038 82.80737028 657.82770903 C82.67673146 735.03385729 82.51940462 812.2399558 82.35791016 889.44604492 C82.02791016 889.44604492 81.69791016 889.44604492 81.35791016 889.44604492 C80.86291016 499.88104492 80.86291016 499.88104492 80.35791016 102.44604492 C77.38791016 109.87104492 77.38791016 109.87104492 74.35791016 117.44604492 C68.18779587 128.18661423 61.32064062 136.18756371 51.35791016 143.44604492 C49.93438611 144.49765875 48.51121401 145.54974914 47.08837891 146.60229492 C45.57433146 147.71725243 44.05999702 148.83182028 42.54541016 149.94604492 C40.86308839 151.18428528 39.18079761 152.42256773 37.49853516 153.66088867 C36.64582031 154.28850098 35.79310547 154.91611328 34.91455078 155.56274414 C32.45138523 157.37718828 29.99020947 159.19429216 27.52978516 161.01245117 C19.0969754 167.24135934 10.63595207 173.42698159 2.12719727 179.55175781 C-3.32316046 183.48003462 -8.73885219 187.45325781 -14.14208984 191.44604492 C-20.30618874 195.9997659 -26.48928339 200.52494023 -32.70458984 205.00854492 C-33.44104736 205.54020264 -34.17750488 206.07186035 -34.9362793 206.61962891 C-38.69809715 209.33253774 -42.46663311 212.0355893 -46.24365234 214.72729492 C-54.16819643 220.39020676 -61.89907456 226.18766345 -69.44702148 232.34423828 C-73.74430002 235.81652288 -78.19225818 238.80530566 -82.91162109 241.68432617 C-86.05822216 243.71453659 -89.0079424 245.95360203 -91.95458984 248.25854492 C-96.34605903 251.69345646 -100.78120615 255.03378906 -105.32958984 258.25854492 C-105.90402832 258.66596924 -106.4784668 259.07339355 -107.0703125 259.49316406 C-108.28292979 260.35277645 -109.49566107 261.21222805 -110.70849609 262.0715332 C-121.39954548 269.67135745 -131.98301161 277.41879038 -142.53320312 285.21240234 C-151.59315006 291.89844667 -160.73245097 298.47340512 -169.87158203 305.05053711 C-179.1336118 311.71838786 -188.35793877 318.43281531 -197.53637695 325.21533203 C-203.61753889 329.70420855 -209.73804493 334.13595305 -215.87255859 338.55151367 C-221.32292946 342.47996597 -226.73876062 346.45319014 -232.14208984 350.44604492 C-241.99604104 357.72564006 -251.92783581 364.89435005 -261.87158203 372.05053711 C-271.1336118 378.71838786 -280.35793877 385.43281531 -289.53637695 392.21533203 C-295.61753889 396.70420855 -301.73804493 401.13595305 -307.87255859 405.55151367 C-313.32292822 409.47996508 -318.73883001 413.4530976 -324.14208984 417.44604492 C-331.01912544 422.5280957 -337.93242068 427.5560729 -344.87255859 432.55151367 C-350.32292822 436.47996508 -355.73883001 440.4530976 -361.14208984 444.44604492 C-368.01912544 449.5280957 -374.93242068 454.5560729 -381.87255859 459.55151367 C-387.32292822 463.47996508 -392.73883001 467.4530976 -398.14208984 471.44604492 C-405.01912544 476.5280957 -411.93242068 481.5560729 -418.87255859 486.55151367 C-424.32292822 490.47996508 -429.73883001 494.4530976 -435.14208984 498.44604492 C-442.01912544 503.5280957 -448.93242068 508.5560729 -455.87255859 513.55151367 C-461.32292822 517.47996508 -466.73883001 521.4530976 -472.14208984 525.44604492 C-479.01912544 530.5280957 -485.93242068 535.5560729 -492.87255859 540.55151367 C-499.12595646 545.05876205 -505.33130263 549.6291559 -511.5300293 554.21118164 C-517.66934089 558.74376207 -523.84328732 563.22618503 -530.05493164 567.65917969 C-533.82198038 570.35898835 -537.52065263 573.11375524 -541.14990234 575.99682617 C-541.87411377 576.5651416 -542.5983252 577.13345703 -543.34448242 577.71899414 C-544.71855147 578.80292365 -546.08114722 579.90161053 -547.42993164 581.0168457 C-549.28662109 582.47338867 -549.28662109 582.47338867 -552.64208984 584.44604492 C-557.48400503 583.80303859 -561.88767586 579.56270642 -565.76708984 576.69604492 C-566.5540625 576.12112305 -567.34103516 575.54620117 -568.15185547 574.95385742 C-570.65310382 573.12396551 -573.14827281 571.28604861 -575.64208984 569.44604492 C-577.23323366 568.27416718 -578.82437946 567.10229214 -580.41552734 565.93041992 C-582.78900617 564.18133427 -585.16186702 562.43143316 -587.53320312 560.67944336 C-593.612115 556.19135602 -599.73075832 551.76091417 -605.86376953 547.34716797 C-611.40186211 543.35598462 -616.9026572 539.31633353 -622.39208984 535.25854492 C-627.77854032 531.27725544 -633.17914962 527.32177954 -638.64208984 523.44604492 C-644.10503196 519.57030896 -649.50557069 515.61474373 -654.89208984 511.63354492 C-664.09247675 504.83478038 -673.35688139 498.12830401 -682.64208984 491.44604492 C-692.64841554 484.24482148 -702.6214849 477.00348593 -712.53637695 469.67675781 C-717.88044601 465.73197451 -723.25110529 461.82642084 -728.64208984 457.94604492 C-734.83863399 453.48583539 -741.00185007 448.98344857 -747.14208984 444.44604492 C-756.25957351 437.71051433 -765.44149753 431.06740855 -774.64208984 424.44604492 C-784.64759382 417.24541284 -794.61897462 410.00353706 -804.53417969 402.67895508 C-812.85711734 396.53684858 -821.246412 390.48813809 -829.64208984 384.44604492 C-839.64841554 377.24482148 -849.6214849 370.00348593 -859.53637695 362.67675781 C-864.88044601 358.73197451 -870.25110529 354.82642084 -875.64208984 350.94604492 C-881.83863399 346.48583539 -888.00185007 341.98344857 -894.14208984 337.44604492 C-902.52146659 331.25578997 -910.95316555 325.14130034 -919.40820312 319.05493164 C-923.90732153 315.81458298 -928.40033103 312.5657679 -932.89453125 309.31860352 C-936.63003484 306.6200647 -940.36690464 303.92346539 -944.10693359 301.23120117 C-952.62212155 295.09788397 -961.09659168 288.91343813 -969.53637695 282.67675781 C-975.61459099 278.19005732 -981.73187999 273.76010694 -987.86376953 269.34716797 C-994.13577693 264.8270681 -1000.3629929 260.24787491 -1006.57177734 255.64135742 C-1013.5360355 250.48680792 -1020.58727231 245.4852003 -1027.64208984 240.44604492 C-1027.97208984 480.02604492 -1028.30208984 719.60604492 -1028.64208984 966.44604492 C-1129.17054513 966.44604492 -1129.17054513 966.44604492 -1143.07958984 958.69604492 C-1143.72734375 958.3531543 -1144.37509766 958.01026367 -1145.04248047 957.65698242 C-1161.29690907 948.82900732 -1172.45711055 936.89731239 -1180.89208984 920.57104492 C-1181.22144531 919.9477832 -1181.55080078 919.32452148 -1181.89013672 918.68237305 C-1187.12047982 908.18959884 -1188.08206911 897.56688816 -1188.01961327 885.99372101 C-1188.02274894 884.56274165 -1188.02719732 883.13176469 -1188.03282636 881.70079297 C-1188.04445742 877.78342209 -1188.03754583 873.86627444 -1188.02749251 869.9489074 C-1188.01986008 865.68144212 -1188.02967097 861.41401021 -1188.0372225 857.1465497 C-1188.04804528 849.67213247 -1188.04773643 842.19778027 -1188.04008102 834.72336006 C-1188.02872809 823.60859357 -1188.03453765 812.49388188 -1188.04370595 801.37911575 C-1188.05950153 781.52754349 -1188.05813464 761.67600021 -1188.04946921 741.82442521 C-1188.04192316 724.45200322 -1188.03995215 707.07959186 -1188.04353714 689.70716858 C-1188.0437663 688.55490808 -1188.04399545 687.40264759 -1188.04423155 686.21547011 C-1188.04516556 681.53809366 -1188.04612076 676.86071721 -1188.04711084 672.18334077 C-1188.05628827 628.30410388 -1188.04796676 584.42488543 -1188.03182015 540.54565138 C-1188.01758329 501.55980263 -1188.01885717 462.57398327 -1188.03320312 423.58813477 C-1188.04926629 379.78925675 -1188.05563742 335.99039504 -1188.04636633 292.19151449 C-1188.04540418 287.52265009 -1188.04446566 282.85378568 -1188.04353714 278.18492126 C-1188.04329991 277.03532399 -1188.04306268 275.88572672 -1188.04281825 274.70129317 C-1188.03940554 257.33959971 -1188.04339723 239.97791803 -1188.0509758 222.6162262 C-1188.05954982 202.87562724 -1188.05741709 183.13506178 -1188.04113357 163.394467 C-1188.03232045 152.34574555 -1188.03175584 141.29709664 -1188.04307209 130.24837706 C-1188.04979703 122.86871284 -1188.04561654 115.4891068 -1188.03255778 108.1094512 C-1188.02541993 103.9045402 -1188.02298449 99.69977338 -1188.03377573 95.49486691 C-1188.04350305 91.66546381 -1188.03929747 87.83633209 -1188.02423375 84.00694857 C-1188.0198129 81.98947432 -1188.03000921 79.97198395 -1188.04089659 77.95453423 C-1187.9732615 66.98666819 -1186.04891203 57.07706921 -1180.95458984 47.32104492 C-1180.6079126 46.64436768 -1180.26123535 45.96769043 -1179.90405273 45.27050781 C-1176.80735971 39.41312659 -1173.11033423 34.34463252 -1168.64208984 29.44604492 C-1168.13677734 28.84920898 -1167.63146484 28.25237305 -1167.11083984 27.63745117 C-1154.48018498 13.68573292 -1135.01809105 5.56265239 -1116.64208984 3.44604492 C-1113.682001 3.31606503 -1110.72961353 3.30572152 -1107.76708984 3.32104492 C-1106.61080078 3.31524414 -1106.61080078 3.31524414 -1105.43115234 3.30932617 C-1099.76883973 3.31929503 -1099.76883973 3.31929503 -1098.64208984 4.44604492 C-1096.95796385 4.69881609 -1095.26939375 4.92203515 -1093.57958984 5.13354492 C-1079.63500338 7.41628861 -1068.06140571 13.32445948 -1056.64208984 21.44604492 C-1055.96452637 21.92460937 -1055.28696289 22.40317383 -1054.58886719 22.89624023 C-1045.21588209 29.53871392 -1035.99129978 36.38711244 -1026.75097656 43.2121582 C-1018.42810077 49.35511154 -1010.03813289 55.40368893 -1001.64208984 61.44604492 C-991.63658587 68.646677 -981.66520506 75.88855278 -971.75 83.21313477 C-963.42706235 89.35524126 -955.03776769 95.40395175 -946.64208984 101.44604492 C-936.63658587 108.646677 -926.66520506 115.88855278 -916.75 123.21313477 C-908.42706235 129.35524126 -900.03776769 135.40395175 -891.64208984 141.44604492 C-881.63658587 148.646677 -871.66520506 155.88855278 -861.75 163.21313477 C-853.42706235 169.35524126 -845.03776769 175.40395175 -836.64208984 181.44604492 C-826.63658587 188.646677 -816.66520506 195.88855278 -806.75 203.21313477 C-798.42706235 209.35524126 -790.03776769 215.40395175 -781.64208984 221.44604492 C-771.63658587 228.646677 -761.66520506 235.88855278 -751.75 243.21313477 C-743.42706235 249.35524126 -735.03776769 255.40395175 -726.64208984 261.44604492 C-716.63658587 268.646677 -706.66520506 275.88855278 -696.75 283.21313477 C-688.42706235 289.35524126 -680.03776769 295.40395175 -671.64208984 301.44604492 C-661.63658587 308.646677 -651.66520506 315.88855278 -641.75 323.21313477 C-633.42706235 329.35524126 -625.03776769 335.40395175 -616.64208984 341.44604492 C-607.44148959 348.06741427 -598.25996673 354.71103778 -589.14208984 361.44604492 C-582.76210844 366.15545435 -576.37216614 370.85045412 -569.95458984 375.50854492 C-569.23658203 376.03254883 -568.51857422 376.55655273 -567.77880859 377.09643555 C-563.18579832 380.42077725 -558.4885839 383.50373359 -553.64208984 386.44604492 C-545.0098899 380.33450369 -536.46049635 374.11933825 -527.95532227 367.83227539 C-522.54237311 363.83516976 -517.10350075 359.87662853 -511.64208984 355.94604492 C-502.25422451 349.18628891 -492.94512362 342.32187054 -483.64208984 335.44604492 C-473.60114099 328.02482997 -463.5414258 320.63432686 -453.40917969 313.33813477 C-444.7695938 307.1094209 -436.20724044 300.77650478 -427.64208984 294.44604492 C-417.60197744 287.02544819 -407.54411476 279.63408453 -397.41137695 272.34033203 C-391.96102047 268.41205612 -386.5452581 264.43892457 -381.14208984 260.44604492 C-374.26505424 255.36399414 -367.35175901 250.33601695 -360.41162109 245.34057617 C-354.15822322 240.83332779 -347.95287706 236.26293395 -341.75415039 231.6809082 C-336.34790318 227.68954045 -330.9107496 223.74383564 -325.45458984 219.82104492 C-319.80337877 215.75648237 -314.19853014 211.63922066 -308.64208984 207.44604492 C-302.34288887 202.69234377 -295.97130871 198.04879797 -289.56396484 193.44213867 C-284.06111912 189.48197107 -278.59398257 185.47601981 -273.14208984 181.44604492 C-266.26512748 176.36389609 -259.35175775 171.33601604 -252.41162109 166.34057617 C-246.96125146 162.41212476 -241.54534968 158.43899224 -236.14208984 154.44604492 C-230.00192715 149.90853481 -223.83854323 145.40637916 -217.64208984 140.94604492 C-208.25428212 134.18620743 -198.94512489 127.32187148 -189.64208984 120.44604492 C-179.60114099 113.02482997 -169.5414258 105.63432686 -159.40917969 98.33813477 C-150.7695938 92.1094209 -142.20724044 85.77650478 -133.64208984 79.44604492 C-123.60197744 72.02544819 -113.54411476 64.63408453 -103.41137695 57.34033203 C-97.96102047 53.41205612 -92.5452581 49.43892457 -87.14208984 45.44604492 C-80.27085519 40.36828098 -73.36773108 35.33831885 -66.42700195 30.35595703 C-62.48156887 27.51813539 -58.56376987 24.64930945 -54.67724609 21.73120117 C-32.9601694 5.44604492 -32.9601694 5.44604492 -25.64208984 5.44604492 C-25.64208984 4.78604492 -25.64208984 4.12604492 -25.64208984 3.44604492 C-17.1261328 0.43575846 -8.92732105 -0.05193721 0 0 Z M-51.52832031 32.8269043 C-55.11222513 35.5721638 -58.78464145 38.19258454 -62.45458984 40.82104492 C-71.90866118 47.61759055 -81.2785749 54.52551798 -90.64208984 61.44604492 C-100.6830387 68.86725988 -110.74275389 76.25776298 -120.875 83.55395508 C-129.51458589 89.78266895 -138.07693925 96.11558506 -146.64208984 102.44604492 C-156.6830387 109.86725988 -166.74275389 117.25776298 -176.875 124.55395508 C-184.7108647 130.20322575 -192.48201839 135.93917385 -200.25097656 141.67993164 C-205.00208132 145.18917115 -209.75890276 148.69065768 -214.51464844 152.19360352 C-218.48740473 155.12025241 -222.45876831 158.04875267 -226.42724609 160.98120117 C-234.87549241 167.22075564 -243.35215568 173.41668713 -251.875 179.55395508 C-260.51458589 185.78266895 -269.07693925 192.11558506 -277.64208984 198.44604492 C-287.6830387 205.86725988 -297.74275389 213.25776298 -307.875 220.55395508 C-316.51458589 226.78266895 -325.07693925 233.11558506 -333.64208984 239.44604492 C-343.6830387 246.86725988 -353.74275389 254.25776298 -363.875 261.55395508 C-371.7108647 267.20322575 -379.48201839 272.93917385 -387.25097656 278.67993164 C-392.00208132 282.18917115 -396.75890276 285.69065768 -401.51464844 289.19360352 C-405.48740473 292.12025241 -409.45876831 295.04875267 -413.42724609 297.98120117 C-421.87549241 304.22075564 -430.35215568 310.41668713 -438.875 316.55395508 C-446.7108647 322.20322575 -454.48201839 327.93917385 -462.25097656 333.67993164 C-467.00208132 337.18917115 -471.75890276 340.69065768 -476.51464844 344.19360352 C-480.48740473 347.12025241 -484.45876831 350.04875267 -488.42724609 352.98120117 C-496.94117641 359.26907988 -505.48470302 365.51085117 -514.0793457 371.68798828 C-519.02516016 375.25190795 -523.90695086 378.89147267 -528.76708984 382.57104492 C-534.25882353 386.70341818 -539.78391854 390.78528945 -545.39208984 394.75854492 C-546.05998535 395.24532715 -546.72788086 395.73210937 -547.41601562 396.23364258 C-552.11207464 399.51375583 -552.11207464 399.51375583 -554.64868164 399.18969727 C-558.00016766 397.93940622 -560.79955695 395.80483497 -563.70458984 393.75854492 C-564.40213379 393.27305176 -565.09967773 392.78755859 -565.81835938 392.28735352 C-572.92004343 387.31288032 -579.88490747 382.15315513 -586.84912109 376.98901367 C-591.4426017 373.58550578 -596.0666522 370.22613886 -600.70458984 366.88354492 C-601.44306152 366.35132324 -602.1815332 365.81910156 -602.94238281 365.27075195 C-604.43081691 364.19857209 -605.91942337 363.12663149 -607.40820312 362.05493164 C-611.90732153 358.81458298 -616.40033103 355.5657679 -620.89453125 352.31860352 C-624.63003484 349.6200647 -628.36690464 346.92346539 -632.10693359 344.23120117 C-640.62129665 338.09847813 -649.09425187 331.91371703 -657.53417969 325.67895508 C-665.85711734 319.53684858 -674.246412 313.48813809 -682.64208984 307.44604492 C-692.64759382 300.24541284 -702.61897462 293.00353706 -712.53417969 285.67895508 C-720.85711734 279.53684858 -729.246412 273.48813809 -737.64208984 267.44604492 C-747.64759382 260.24541284 -757.61897462 253.00353706 -767.53417969 245.67895508 C-775.11877824 240.08172319 -782.75797314 234.56195865 -790.40820312 229.05493164 C-794.90732153 225.81458298 -799.40033103 222.5657679 -803.89453125 219.31860352 C-807.63003484 216.6200647 -811.36690464 213.92346539 -815.10693359 211.23120117 C-823.62129665 205.09847813 -832.09425187 198.91371703 -840.53417969 192.67895508 C-848.11877824 187.08172319 -855.75797314 181.56195865 -863.40820312 176.05493164 C-867.90732153 172.81458298 -872.40033103 169.5657679 -876.89453125 166.31860352 C-880.63003484 163.6200647 -884.36690464 160.92346539 -888.10693359 158.23120117 C-896.62129665 152.09847813 -905.09425187 145.91371703 -913.53417969 139.67895508 C-921.85711734 133.53684858 -930.246412 127.48813809 -938.64208984 121.44604492 C-948.64759382 114.24541284 -958.61897462 107.00353706 -968.53417969 99.67895508 C-976.85711734 93.53684858 -985.246412 87.48813809 -993.64208984 81.44604492 C-1003.64759382 74.24541284 -1013.61897462 67.00353706 -1023.53417969 59.67895508 C-1031.10538052 54.09161035 -1038.73152887 48.58241249 -1046.36865234 43.08569336 C-1048.73403393 41.37973302 -1051.09480791 39.6675539 -1053.45458984 37.95385742 C-1054.64749634 37.08869507 -1054.64749634 37.08869507 -1055.86450195 36.20605469 C-1057.36624827 35.11668149 -1058.86713865 34.02612681 -1060.36694336 32.93408203 C-1062.44974596 31.42504086 -1064.54202936 29.93096805 -1066.64208984 28.44604492 C-1067.39256592 27.91390381 -1068.14304199 27.3817627 -1068.91625977 26.83349609 C-1073.45085629 23.70295711 -1077.60830759 21.39757136 -1082.82958984 19.63354492 C-1083.97814453 19.23522461 -1085.12669922 18.8369043 -1086.31005859 18.42651367 C-1104.10603211 13.18994936 -1123.95185404 15.40641128 -1140.32958984 23.63354492 C-1156.65305887 32.96691529 -1168.53496898 46.45704415 -1174.01708984 64.57104492 C-1178.75731123 84.12693733 -1174.91052253 103.32549247 -1164.64208984 120.44604492 C-1162.52216011 123.68469589 -1160.24580928 126.58530597 -1157.64208984 129.44604492 C-1157.00013672 130.16791992 -1156.35818359 130.88979492 -1155.69677734 131.63354492 C-1150.5550062 137.09786259 -1144.78605429 141.39329515 -1138.64990234 145.64526367 C-1134.07603271 148.81612699 -1129.61238137 152.13151772 -1125.14208984 155.44604492 C-1118.5410504 160.32646522 -1111.90247912 165.14577384 -1105.21240234 169.90307617 C-1093.97693142 177.89450268 -1082.84064557 186.02026887 -1071.75097656 194.21240234 C-1064.16606837 199.80990008 -1056.52653676 205.32989348 -1048.87597656 210.8371582 C-1044.37685816 214.07750687 -1039.88384866 217.32632194 -1035.38964844 220.57348633 C-1031.65414485 223.27202514 -1027.91727504 225.96862445 -1024.17724609 228.66088867 C-1015.66205814 234.79420587 -1007.187588 240.97865172 -998.74780273 247.21533203 C-992.6695887 251.70203252 -986.5522997 256.13198291 -980.42041016 260.54492188 C-974.88231633 264.53610612 -969.38159159 268.57584841 -963.89208984 272.63354492 C-957.37349192 277.45009733 -950.81760505 282.20627569 -944.21240234 286.90307617 C-932.97693142 294.89450268 -921.84064557 303.02026887 -910.75097656 311.21240234 C-902.42773104 317.35477701 -894.0380979 323.40371412 -885.64208984 329.44604492 C-876.35687907 336.12830567 -867.09259285 342.83493499 -857.89208984 349.63354492 C-851.37340906 354.44998708 -844.81760704 359.20627427 -838.21240234 363.90307617 C-826.97693142 371.89450268 -815.84064557 380.02026887 -804.75097656 388.21240234 C-796.42773104 394.35477701 -788.0380979 400.40371412 -779.64208984 406.44604492 C-769.63658587 413.646677 -759.66520506 420.88855278 -749.75 428.21313477 C-741.42706235 434.35524126 -733.03776769 440.40395175 -724.64208984 446.44604492 C-714.63658587 453.646677 -704.66520506 460.88855278 -694.75 468.21313477 C-687.16540144 473.81036666 -679.52620655 479.33013119 -671.87597656 484.8371582 C-667.37685816 488.07750687 -662.88384866 491.32632194 -658.38964844 494.57348633 C-654.65414485 497.27202514 -650.91727504 499.96862445 -647.17724609 502.66088867 C-638.66288304 508.79361171 -630.18992782 514.97837282 -621.75 521.21313477 C-613.42706235 527.35524126 -605.03776769 533.40395175 -596.64208984 539.44604492 C-564.81628477 562.35002991 -564.81628477 562.35002991 -557.5144043 568.13037109 C-555.76809501 569.63575363 -555.76809501 569.63575363 -553.77099609 569.39526367 C-550.76531707 568.05511688 -548.21240318 566.20442232 -545.57958984 564.25854492 C-544.97598633 563.82002197 -544.37238281 563.38149902 -543.75048828 562.9296875 C-541.70878544 561.44259417 -539.67484853 559.9453384 -537.64208984 558.44604492 C-536.90941895 557.90689453 -536.17674805 557.36774414 -535.421875 556.81225586 C-532.26490572 554.48875876 -529.10931825 552.16341394 -525.95654297 549.83422852 C-516.82960631 543.09447668 -507.62135504 536.4687925 -498.41259766 529.84155273 C-489.15056789 523.17370198 -479.92624091 516.45927453 -470.74780273 509.67675781 C-464.6666408 505.18788129 -458.54613476 500.75613679 -452.41162109 496.34057617 C-446.96125146 492.41212476 -441.54534968 488.43899224 -436.14208984 484.44604492 C-429.26505424 479.36399414 -422.35175901 474.33601695 -415.41162109 469.34057617 C-409.96125022 465.41212387 -404.54541907 461.43889971 -399.14208984 457.44604492 C-389.28813864 450.16644979 -379.35634388 442.99773979 -369.41259766 435.84155273 C-360.15056789 429.17370198 -350.92624091 422.45927453 -341.74780273 415.67675781 C-335.6666408 411.18788129 -329.54613476 406.75613679 -323.41162109 402.34057617 C-317.96125146 398.41212476 -312.54534968 394.43899224 -307.14208984 390.44604492 C-300.26505424 385.36399414 -293.35175901 380.33601695 -286.41162109 375.34057617 C-280.96125146 371.41212476 -275.54534968 367.43899224 -270.14208984 363.44604492 C-263.26505424 358.36399414 -256.35175901 353.33601695 -249.41162109 348.34057617 C-243.96125022 344.41212387 -238.54541907 340.43889971 -233.14208984 336.44604492 C-223.28813864 329.16644979 -213.35634388 321.99773979 -203.41259766 314.84155273 C-194.15056789 308.17370198 -184.92624091 301.45927453 -175.74780273 294.67675781 C-169.6666408 290.18788129 -163.54613476 285.75613679 -157.41162109 281.34057617 C-151.96125146 277.41212476 -146.54534968 273.43899224 -141.14208984 269.44604492 C-134.26505424 264.36399414 -127.35175901 259.33601695 -120.41162109 254.34057617 C-114.96125022 250.41212387 -109.54541907 246.43889971 -104.14208984 242.44604492 C-94.28813864 235.16644979 -84.35634388 227.99773979 -74.41259766 220.84155273 C-65.15056789 214.17370198 -55.92624091 207.45927453 -46.74780273 200.67675781 C-40.6666408 196.18788129 -34.54613476 191.75613679 -28.41162109 187.34057617 C-22.96125146 183.41212476 -17.54534968 179.43899224 -12.14208984 175.44604492 C-6.00192687 170.9085346 0.16146904 166.40639662 6.35791016 161.94604492 C15.03858005 155.69504502 23.65935863 149.36545469 32.25439453 142.99731445 C34.13030633 141.61389482 36.01479666 140.24372207 37.90478516 138.87963867 C53.70975425 127.34682493 65.39824329 112.81001435 69.73291016 93.25854492 C72.5445105 73.10380983 69.63857464 55.03685443 57.35791016 38.44604492 C46.83967047 24.72660186 30.76808647 14.16329457 13.34619141 11.80932617 C-12.36425191 9.17347607 -31.47620296 17.23762011 -51.52832031 32.8269043 Z M-1175.64208984 124.44604492 C-1175.67636334 197.71432268 -1175.70816306 270.9826014 -1175.72677612 344.25088501 C-1175.72705224 345.33500235 -1175.72732835 346.41911968 -1175.72761283 347.53608906 C-1175.73359843 371.09597252 -1175.73913882 394.65585607 -1175.7442205 418.21573975 C-1175.74671521 429.76923342 -1175.74930831 441.32272707 -1175.75195312 452.8762207 C-1175.75221464 454.02594199 -1175.75247616 455.17566327 -1175.7527456 456.36022459 C-1175.76127073 493.6367233 -1175.77629516 530.91321595 -1175.79468429 568.18971099 C-1175.81354469 606.49103769 -1175.82585962 644.79236105 -1175.82991982 683.09369232 C-1175.83049615 688.50150397 -1175.83114742 693.9093156 -1175.83184433 699.31712723 C-1175.83197918 700.38147887 -1175.83211402 701.44583051 -1175.83225295 702.54243523 C-1175.83461786 719.68658809 -1175.84389794 736.83073059 -1175.85575391 753.97487923 C-1175.86752133 771.20384508 -1175.87202757 788.43280065 -1175.8690926 805.66177039 C-1175.86756961 815.90211118 -1175.8716433 826.14241438 -1175.88368493 836.38274839 C-1175.89117826 843.22143345 -1175.89142168 850.06009385 -1175.88575347 856.8987806 C-1175.88273087 860.79654596 -1175.88287622 864.69424015 -1175.89185621 868.59199791 C-1175.90145776 872.79144853 -1175.89557429 876.99073622 -1175.8881855 881.19019127 C-1175.89343953 882.39926712 -1175.89869356 883.60834298 -1175.9041068 884.85405749 C-1175.82780699 903.97242567 -1169.35511234 920.95905313 -1155.89208984 934.69604492 C-1139.16011041 951.0943233 -1119.74958244 954.79159636 -1097.16162109 954.64135742 C-1095.49582592 954.63761937 -1093.83002852 954.63477615 -1092.16423035 954.63278198 C-1087.81596626 954.62520779 -1083.46783941 954.60561397 -1079.11962891 954.58337402 C-1074.66815038 954.56278043 -1070.21664932 954.55375159 -1065.76513672 954.54370117 C-1057.05739201 954.52236115 -1048.34975808 954.4883019 -1039.64208984 954.44604492 C-1039.33358053 885.60580178 -1039.04738959 816.76547606 -1038.87991333 747.92472839 C-1038.8774283 746.90587315 -1038.87494328 745.88701792 -1038.87238294 744.83728828 C-1038.81851066 722.69484422 -1038.76864738 700.55239284 -1038.72291391 678.40993052 C-1038.70046185 667.55128018 -1038.67712388 656.69263183 -1038.65332031 645.83398438 C-1038.65096665 644.75341813 -1038.64861299 643.67285189 -1038.646188 642.55954122 C-1038.56948277 607.53481854 -1038.43427928 572.51061856 -1038.26873987 537.48621255 C-1038.09893602 501.49417758 -1037.98814816 465.50243187 -1037.95162002 429.51000311 C-1037.94643323 424.42640868 -1037.94057177 419.34281523 -1037.93429947 414.25922203 C-1037.93308585 413.25869758 -1037.93187224 412.25817313 -1037.93062185 411.22732976 C-1037.90935017 395.12104831 -1037.82586527 379.01566123 -1037.71911323 362.90974453 C-1037.6131191 346.71785706 -1037.57267111 330.52685622 -1037.59906505 314.33463398 C-1037.61275737 304.71353988 -1037.57626205 295.0956905 -1037.46773407 285.47518243 C-1037.40015865 279.04563187 -1037.39818762 272.61820187 -1037.4491172 266.188504 C-1037.4762698 262.52501431 -1037.47532425 258.86764776 -1037.39419256 255.20481954 C-1036.58193063 240.97152725 -1036.58193063 240.97152725 -1041.36773291 228.06892513 C-1045.49394264 224.02855758 -1050.12435941 221.28825878 -1055.26179864 218.72083529 C-1059.31332694 216.55099605 -1062.91430159 213.76617054 -1066.57958984 211.00854492 C-1067.41159912 210.40856689 -1068.2436084 209.80858887 -1069.10083008 209.19042969 C-1075.27551655 204.7256329 -1081.40827963 200.20518866 -1087.53637695 195.67675781 C-1092.88044601 191.73197451 -1098.25110529 187.82642084 -1103.64208984 183.94604492 C-1110.63780782 178.91059818 -1117.58680496 173.81509185 -1124.5168457 168.68969727 C-1129.27726507 165.17366221 -1134.06230646 161.6951733 -1138.87109375 158.24560547 C-1151.9466805 148.86231927 -1164.31033658 139.94099746 -1173.29443359 126.35229492 C-1173.73916016 125.72323242 -1174.18388672 125.09416992 -1174.64208984 124.44604492 C-1174.97208984 124.44604492 -1175.30208984 124.44604492 -1175.64208984 124.44604492 Z " fill="#D62D28" transform="translate(1214.64208984375,186.553955078125)"/>
<path d="M0 0 C6.43253022 4.09342832 12.57217938 8.00909931 18.5625 12.625 C24.28143468 16.97037035 30.04550949 21.24150634 35.875 25.4375 C37.00059326 26.24803833 37.00059326 26.24803833 38.14892578 27.07495117 C40.43194849 28.71756625 42.71595019 30.35881352 45 32 C55.00696582 39.19856631 64.97691537 46.44253046 74.89208984 53.76708984 C83.21502749 59.90919634 91.60432215 65.95790683 100 72 C110.0063257 79.20122344 119.97939506 86.44255899 129.89428711 93.76928711 C135.23835616 97.71407041 140.60901545 101.61962408 146 105.5 C152.19654414 109.96020953 158.35976023 114.46259635 164.5 119 C173.61748366 125.73553059 182.79940769 132.37863637 192 139 C202.00550398 146.20063208 211.97688478 153.44250786 221.89208984 160.76708984 C230.21502749 166.90919634 238.60432215 172.95790683 247 179 C257.0063257 186.20122344 266.97939506 193.44255899 276.89428711 200.76928711 C282.23835616 204.71407041 287.60901545 208.61962408 293 212.5 C299.19654414 216.96020953 305.35976023 221.46259635 311.5 226 C320.61748366 232.73553059 329.79940769 239.37863637 339 246 C349.00550398 253.20063208 358.97688478 260.44250786 368.89208984 267.76708984 C377.21502749 273.90919634 385.60432215 279.95790683 394 286 C404.0063257 293.20122344 413.97939506 300.44255899 423.89428711 307.76928711 C429.96660504 312.25163533 436.07745316 316.67800823 442.20410156 321.08569336 C448.72027639 325.78058154 455.1850065 330.54374254 461.6328125 335.33203125 C465.6888315 338.33545016 469.77061997 341.24551523 474 344 C470.14119158 348.01375101 466.0312523 351.52266224 461.6875 355 C460.2564139 356.15352611 458.82542713 357.30717545 457.39453125 358.4609375 C456.66572754 359.04713867 455.93692383 359.63333984 455.18603516 360.23730469 C453.08048782 361.93509917 450.98209434 363.64123671 448.88671875 365.3515625 C442.07177267 370.91397391 435.22192523 376.42227979 428.28857422 381.83642578 C423.13090996 385.87355647 418.05409433 390.00643223 412.98071289 394.14868164 C407.92992296 398.26484516 402.82708704 402.30899426 397.67822266 406.30175781 C394.62854119 408.67640043 391.71368485 411.12828469 388.875 413.75 C386 416 386 416 384.15156555 415.94960022 C381.02190312 414.56831387 379.1112337 412.47713836 376.69995117 410.05639648 C376.1839183 409.54240799 375.66788544 409.02841949 375.13621521 408.49885559 C373.43111925 406.79676836 371.7370166 405.08417171 370.04296875 403.37109375 C368.85534634 402.18041131 367.66713014 400.99032085 366.47834778 399.80079651 C363.98479137 397.30263501 361.49622532 394.79964426 359.01147461 392.29272461 C355.8443712 389.09749256 352.66880126 385.91085463 349.48984814 382.72741604 C346.44190217 379.67427872 343.39863967 376.61648915 340.35546875 373.55859375 C339.78224569 372.98348997 339.20902264 372.40838619 338.61842918 371.81585503 C336.97244691 370.16290028 335.32986777 368.50663596 333.68823242 366.84936523 C333.21474365 366.37475861 332.74125488 365.90015198 332.25341797 365.41116333 C329.67031997 362.79587489 327.21763704 360.11151908 324.82525635 357.32029724 C320.17824076 351.96901586 315.13292908 347.01701899 310.10766602 342.02587891 C309.02267099 340.94444703 307.9379151 339.86277519 306.8533783 338.78088379 C304.5330877 336.46710239 302.21129621 334.15484179 299.88833809 331.84373856 C296.21743192 328.1912219 292.55095977 324.53427585 288.88523865 320.8765564 C278.46639405 310.48179656 268.04154864 300.09306681 257.61254883 289.70849609 C251.84101701 283.96147402 246.07305474 278.21089348 240.30893272 272.45643938 C236.66261667 268.81667608 233.01183479 265.18147032 229.35771668 261.54954076 C227.09401668 259.29752942 224.83446922 257.04138816 222.57610512 254.7840271 C221.52485653 253.73493431 220.47187609 252.6875738 219.41708755 251.64204025 C217.98313074 250.22018623 216.55582298 248.7916357 215.12892151 247.36270142 C214.32683541 246.56375772 213.52474932 245.76481403 212.69835758 244.94165993 C211 243 211 243 211 241 C210.34 241 209.68 241 209 241 C207.65314388 239.63258171 207.65314388 239.63258171 206.05003357 237.68014526 C201.38754548 232.20338485 196.2995489 227.18280478 191.19946289 222.11767578 C190.12431991 221.04609605 189.04941613 219.97427629 187.97473145 218.90223694 C185.67572202 216.60973613 183.3752117 214.3187563 181.07353401 212.02893448 C177.43623198 208.41002361 173.80336543 204.78668192 170.17124939 201.16256714 C159.84798634 190.86338767 149.51872093 180.5702401 139.18530273 170.28125 C133.4665086 164.58696571 127.75128415 158.8891229 122.03989977 153.18740642 C118.42703516 149.58109442 114.80970525 145.97934027 111.1890384 142.38086247 C108.94609727 140.14961013 106.70730891 137.91422785 104.46970367 135.67762566 C103.42813042 134.63820817 102.38482535 133.60052291 101.33971214 132.56466484 C99.91889245 131.15594829 98.50472195 129.74053464 97.09095764 128.32473755 C96.29624589 127.5331682 95.50153414 126.74159885 94.68274021 125.92604256 C93 124 93 124 93 122 C92.34 122 91.68 122 91 122 C88.69 119.36 86.38 116.72 84 114 C56.94 86.94 29.88 59.88 2 32 C1.67 261.35 1.34 490.7 1 727 C0.67 727 0.34 727 0 727 C0 487.09 0 247.18 0 0 Z " fill="#B4B3B3" transform="translate(186,426)"/>
<path d="M0 0 C0.33 0 0.66 0 1 0 C1.16396661 75.74355188 1.32293853 151.48711382 1.4553833 227.23072815 C1.45734527 228.351942 1.45930723 229.47315585 1.46132865 230.62834588 C1.50393857 254.99594867 1.5456525 279.36355292 1.58644359 303.73115882 C1.60645328 315.68120577 1.62666094 327.63125239 1.64697266 339.58129883 C1.64899054 340.77046555 1.65100841 341.95963227 1.65308744 343.18483435 C1.71857331 381.72197668 1.79712911 420.25907888 1.88247023 458.79618193 C1.97010779 498.40147412 2.04454458 538.00676975 2.10239606 577.61211718 C2.11057526 583.20742079 2.11890521 588.80272417 2.12732697 594.39802742 C2.12897981 595.49925216 2.13063265 596.6004769 2.13233558 597.73507209 C2.15931823 615.45436704 2.20019666 633.17360393 2.24628548 650.89285835 C2.29233488 668.71116213 2.32371166 686.52944409 2.3401753 704.34780019 C2.35039813 714.93110507 2.37180684 725.51424856 2.40935209 736.09749253 C2.43334553 743.17368788 2.44263121 750.24980555 2.4401468 757.32604085 C2.43914815 761.35380618 2.44436429 765.38128567 2.4675779 769.40899044 C2.67451433 807.02004393 2.67451433 807.02004393 -5.8125 822.5 C-6.15651855 823.15669678 -6.50053711 823.81339355 -6.85498047 824.48999023 C-9.70528906 829.7853844 -13.0508932 834.46373583 -17 839 C-17.66708984 839.87978516 -17.66708984 839.87978516 -18.34765625 840.77734375 C-28.69314302 854.07868389 -46.53889996 863.1687255 -63 866 C-70.35689252 866.68454496 -77.76915686 866.46813597 -85.1484375 866.390625 C-87.25834614 866.38314881 -89.36826181 866.37746241 -91.47817993 866.37347412 C-96.98555247 866.35832621 -102.49249154 866.31913981 -107.99969482 866.2746582 C-113.63775777 866.23346948 -119.27589192 866.21541307 -124.9140625 866.1953125 C-135.94289699 866.15263348 -146.97141221 866.08451613 -158 866 C-158.24956891 796.58416179 -158.48802237 727.16828785 -158.667099 657.75222778 C-158.66975125 656.72535746 -158.6724035 655.69848713 -158.67513612 654.64049952 C-158.73270539 632.32551022 -158.78827052 610.01051635 -158.84177024 587.69551694 C-158.86801751 576.75273954 -158.89470778 565.80996325 -158.92163086 554.8671875 C-158.92430253 553.77823173 -158.92697421 552.68927596 -158.92972684 551.56732153 C-159.0165798 516.25133808 -159.13270339 480.93552434 -159.26395634 445.61968034 C-159.39864662 409.33746372 -159.50390651 373.05527847 -159.57197101 336.77287276 C-159.58159155 331.65189673 -159.59154963 326.53092142 -159.60171318 321.40994644 C-159.60370314 320.40203428 -159.6056931 319.39412212 -159.60774335 318.35566716 C-159.64068541 302.11066994 -159.70478421 285.86593687 -159.78044565 269.62108865 C-159.8557921 253.30180203 -159.89852606 236.98269086 -159.90768219 220.66323046 C-159.91412559 210.95937966 -159.94586087 201.25636747 -160.01333981 191.5527451 C-160.05591306 185.07688737 -160.0659972 178.60151364 -160.04930587 172.12553863 C-160.04072487 168.43122163 -160.0466073 164.73844825 -160.09199382 161.04436646 C-160.14049496 157.07006849 -160.11973758 153.0978868 -160.09181309 149.12335014 C-160.11706056 147.9695444 -160.14230802 146.81573865 -160.16832057 145.6269691 C-160.03418894 138.07219789 -160.03418894 138.07219789 -157.06403004 134.99287845 C-154.76529126 133.42428867 -152.52004977 132.17436403 -150 131 C-148.02 130.01 -148.02 130.01 -146 129 C-146 368.58 -146 608.16 -146 855 C-99.12119454 858.39738205 -99.12119454 858.39738205 -48.75 847.25 C-47.73570923 846.722854 -47.73570923 846.722854 -46.70092773 846.18505859 C-30.92325621 837.77611105 -20.21907822 824.74419174 -13.90234375 808.109375 C-11.41650227 799.54344506 -10.71625318 791.77941092 -10.75784016 782.84383106 C-10.75594127 781.53083958 -10.75404238 780.2178481 -10.75208595 778.865069 C-10.7470826 775.22449552 -10.75450099 771.58403775 -10.76393794 767.943477 C-10.77196829 763.98122633 -10.76828104 760.01898384 -10.7660448 756.05672807 C-10.76370144 749.11347039 -10.76867325 742.17024816 -10.7784214 735.22699738 C-10.79283812 724.90190588 -10.79566069 714.57683423 -10.79579789 704.2517338 C-10.79618972 687.9448013 -10.80332253 671.63788061 -10.81502171 655.33095259 C-10.83348061 629.44366263 -10.83230687 603.5564016 -10.82461187 577.66910752 C-10.82203622 568.8237807 -10.81989276 559.97845375 -10.81767653 551.13312684 C-10.81711596 548.89912486 -10.81655032 546.66512289 -10.81597962 544.43112093 C-10.80928427 518.0879512 -10.80656218 491.74478187 -10.80639648 465.40161133 C-10.80637585 463.67266387 -10.80637585 463.67266387 -10.8063548 461.90878817 C-10.80604098 424.52637965 -10.82336547 387.14399939 -10.84773304 349.76159974 C-10.87265258 311.32479348 -10.87420581 272.88804706 -10.84848481 234.45124008 C-10.84487592 229.02306286 -10.84156297 223.59488551 -10.83844566 218.16670799 C-10.83751838 216.56426392 -10.83751838 216.56426392 -10.83657236 214.92944725 C-10.82736836 197.73725911 -10.84327444 180.5451813 -10.86894448 163.35301361 C-10.89429199 146.07462143 -10.89463134 128.7963757 -10.86931346 111.5179821 C-10.85506622 101.25384999 -10.86037813 90.99016038 -10.89369447 80.72607016 C-10.91404347 73.8667323 -10.90894995 67.0077153 -10.88335481 60.14839587 C-10.86950756 56.24205533 -10.8665751 52.33657257 -10.89477954 48.43029002 C-11.08900109 19.71937346 -11.08900109 19.71937346 -3 8 C-1.84829452 5.36185527 -0.92696584 2.72637011 0 0 Z " fill="#AD2521" transform="translate(1295,287)"/>
<path d="M0 0 C2.77075248 1.3134881 5.21979592 2.77552964 7.6953125 4.58203125 C8.40163818 5.09499756 9.10796387 5.60796387 9.83569336 6.13647461 C10.59116455 6.68956299 11.34663574 7.24265137 12.125 7.8125 C13.75382607 8.99750605 15.38273458 10.1823988 17.01171875 11.3671875 C17.8423584 11.97272461 18.67299805 12.57826172 19.52880859 13.20214844 C22.58836288 15.42804824 25.65885651 17.63849552 28.72998047 19.84838867 C35.68570741 24.85555818 42.60643756 29.90760422 49.5 35 C54.99136453 39.05636443 60.48892254 43.10291386 66.02783203 47.09423828 C67.54088997 48.19079299 69.04596615 49.29845345 70.54248047 50.41748047 C74.00601069 52.98440389 77.33139909 55.24858299 81.23828125 57.0859375 C88.84050993 60.91447825 88.84050993 60.91447825 91 65 C92.68984754 73.87311251 91.85563743 83.06564081 91 92 C86.1458432 87.94581708 81.536631 83.71899422 77.0625 79.25 C76.47404297 78.67378906 75.88558594 78.09757812 75.27929688 77.50390625 C73.81239777 76.04211829 72.40088212 74.52517091 71 73 C71 72.34 71 71.68 71 71 C69.515 70.505 69.515 70.505 68 70 C66.66893005 68.64768982 66.66893005 68.64768982 65.18920898 66.81811523 C60.11587684 60.84560889 54.51782504 55.40698655 48.96293831 49.88777351 C46.9394631 47.87717432 44.91922735 45.86336888 42.89976501 43.84873962 C38.62349501 39.58382629 34.34327243 35.32289351 30.0625 31.0625 C25.07603989 26.09963031 20.09120709 21.13514824 15.11053276 16.16647148 C13.11600025 14.17844046 11.11849256 12.19343154 9.12086487 10.20851135 C7.90993902 9.00121456 6.6991514 7.7937791 5.48852539 6.58618164 C4.92912766 6.03195023 4.36972992 5.47771881 3.79338074 4.9066925 C2.50980633 3.62329794 1.25178269 2.31442191 0 1 C0 0.67 0 0.34 0 0 Z " fill="#BE4235" transform="translate(84,352)"/>
<path d="M0 0 C1.46022163 0.95545366 2.91811468 1.91446678 4.375 2.875 C5.18710938 3.40867187 5.99921875 3.94234375 6.8359375 4.4921875 C9 6 9 6 11 8 C11.22705078 10.88916016 11.22705078 10.88916016 11.1953125 14.5390625 C11.18886719 15.84101563 11.18242187 17.14296875 11.17578125 18.484375 C11.15906929 19.86458595 11.14213939 21.24479429 11.125 22.625 C11.11497006 24.01301452 11.10584423 25.40103589 11.09765625 26.7890625 C11.07401863 30.19288026 11.04106867 33.59635506 11 37 C9.91481889 36.08552154 8.83195262 35.16829593 7.75 34.25 C6.84507812 33.48429687 6.84507812 33.48429687 5.921875 32.703125 C5.28765625 32.14109375 4.6534375 31.5790625 4 31 C3.27071289 30.4028418 2.54142578 29.80568359 1.79003906 29.19042969 C-0.61305899 26.24981379 -0.46159573 24.46457394 -0.390625 20.703125 C-0.37773437 19.49785156 -0.36484375 18.29257812 -0.3515625 17.05078125 C-0.31804687 15.79652344 -0.28453125 14.54226563 -0.25 13.25 C-0.23195312 11.98027344 -0.21390625 10.71054687 -0.1953125 9.40234375 C-0.14817153 6.26746923 -0.08237664 3.1341144 0 0 Z " fill="#BF2623" transform="translate(175,418)"/>
<path d="M0 0 C16.47295569 9.27323729 25.87211504 27.91250426 31.15112305 45.34814453 C32.60866631 51.61847301 32.57765039 57.77810713 32.5 64.1875 C32.51546875 65.47591797 32.5309375 66.76433594 32.546875 68.09179688 C32.51457948 76.00016165 31.45016936 81.91463395 28 89 C27.45466076 90.347486 26.9189265 91.69891354 26.39453125 93.0546875 C21.93947946 103.96718724 16.64261225 113.75958238 7 121 C8.47624792 117.68597405 10.390765 115.24329651 12.75 112.5 C17.16723622 107.07265169 20.1137686 101.34426335 23 95 C23.556875 93.88625 24.11375 92.7725 24.6875 91.625 C32.32594208 70.52835044 30.41644048 48.11942951 21 28 C16.19418561 18.16009503 9.25146814 8.16764543 0 2 C0 1.34 0 0.68 0 0 Z " fill="#D5483A" transform="translate(1266,203)"/>
<path d="M0 0 C0 5.72357859 -5.28599771 9.9584549 -9 14 C-27.24806502 31.3616431 -47.91489579 35.81355025 -72.22265625 35.48828125 C-74.30585369 35.47892982 -76.3890623 35.47182476 -78.47227478 35.46684265 C-83.8958798 35.44795609 -89.31879127 35.39901824 -94.74212646 35.34332275 C-100.29999414 35.29172953 -105.85797635 35.2692439 -111.41601562 35.24414062 C-122.27764473 35.19087782 -133.13876419 35.10579359 -144 35 C-144 34.67 -144 34.34 -144 34 C-142.41838074 33.99120064 -142.41838074 33.99120064 -140.80480957 33.98222351 C-130.80267106 33.92467667 -120.80074333 33.85175239 -110.7988205 33.76428509 C-105.65837716 33.71981201 -100.51800889 33.68050695 -95.37744141 33.65356445 C-90.40409249 33.62729901 -85.43103614 33.5867379 -80.45787048 33.53681374 C-78.57319313 33.52030048 -76.68846535 33.50869056 -74.8037262 33.50238609 C-49.36999875 33.40881433 -26.78785828 28.2796107 -8.3125 9.6875 C-5.31201786 6.6237724 -2.48739958 3.50232517 0 0 Z " fill="#D42A25" transform="translate(1282,1118)"/>
<path d="M0 0 C3.96 0 7.92 0 12 0 C12 0.99 12 1.98 12 3 C10.18674449 2.88648483 8.37436643 2.75887039 6.5625 2.625 C5.04849609 2.52058594 5.04849609 2.52058594 3.50390625 2.4140625 C2.67761719 2.27742187 1.85132812 2.14078125 1 2 C0.67 1.34 0.34 0.68 0 0 Z " fill="#E1D4D4" transform="translate(115,190)"/>
</svg>
